<svg xmlns="http://www.w3.org/2000/svg" xmlns:xlink="http://www.w3.org/1999/xlink" viewBox="0,0,256,256" width="48px" height="48px" fill-rule="nonzero"><g fill="#f06868" fill-rule="nonzero" stroke="none" stroke-width="1" stroke-linecap="butt" stroke-linejoin="miter" stroke-miterlimit="10" stroke-dasharray="" stroke-dashoffset="0" font-family="none" font-weight="none" font-size="none" text-anchor="none" style="mix-blend-mode: normal"><path d="M0,256v-256h256v256z" id="bgRectangle"></path></g><g fill="#ffffff" fill-rule="nonzero" stroke="none" stroke-width="1" stroke-linecap="butt" stroke-linejoin="miter" stroke-miterlimit="10" stroke-dasharray="" stroke-dashoffset="0" font-family="none" font-weight="none" font-size="none" text-anchor="none" style="mix-blend-mode: normal"><g transform="scale(5.33333,5.33333)"><path d="M23.00781,5c-2.57721,0 -5.0526,0.38269 -7.34375,1.08594c-0.52414,0.14744 -0.92725,0.56731 -1.05322,1.09702c-0.12598,0.52971 0.04496,1.08609 0.44661,1.45371c0.40165,0.36761 0.97096,0.48873 1.48747,0.31646c2.00285,-0.61475 4.1821,-0.95312 6.46289,-0.95312c10.09432,0 17.99805,6.56751 17.99805,14.23633c0,3.7313 -1.66651,6.86261 -4.39258,9.74023c-0.38409,0.38621 -0.52866,0.95027 -0.3777,1.47361c0.15096,0.52335 0.57373,0.92375 1.10451,1.04606c0.53077,0.12231 1.08614,-0.05268 1.45092,-0.45717c3.06593,-3.23638 5.21484,-7.16004 5.21484,-11.80273c0,-9.68518 -9.59036,-17.23633 -20.99805,-17.23633zM7.23633,11.51563c-0.44194,-0.00656 -0.86428,0.1821 -1.1543,0.51563c-2.53474,2.82608 -4.07617,6.37184 -4.07617,10.20508c0,8.6379 7.60149,15.64823 17.5,16.99609c0.22775,0.04944 0.47155,0.12875 0.62695,0.19727c-0.01477,0.08546 0.02039,0.48163 -0.02734,0.84375v0.00195c-0.01285,0.07706 -0.22441,1.34001 -0.26953,1.60352l0.00195,-0.00195c-0.07512,0.43302 -0.3159,1.15659 0.35547,2.17188c0.33568,0.50764 1.09204,0.93876 1.76953,0.95117c0.67749,0.01241 1.24611,-0.21027 1.86914,-0.55273c2.85404,-1.57008 5.86386,-3.27116 8.67188,-5.19141c0.44864,-0.29995 0.70159,-0.81777 0.66241,-1.35602c-0.03918,-0.53825 -0.36446,-1.01397 -0.85181,-1.24579c-0.48735,-0.23181 -1.06166,-0.18399 -1.50395,0.12524c-2.48781,1.70128 -5.21208,3.23742 -7.86719,4.70508c0.05662,-0.33897 0.12891,-0.76562 0.12891,-0.76562c0.00285,-0.01558 0.00546,-0.03121 0.00781,-0.04687c0.07502,-0.56268 0.2849,-1.40688 -0.15625,-2.50977c-0.00065,-0.0013 -0.0013,-0.0026 -0.00195,-0.00391c-0.33359,-0.8248 -0.95125,-1.18332 -1.44531,-1.41992c-0.49406,-0.23661 -0.96163,-0.35831 -1.34961,-0.44141c-0.03944,-0.00811 -0.07918,-0.01462 -0.11914,-0.01953c-8.78836,-1.15636 -15.00195,-7.15378 -15.00195,-14.04102c0,-3.03476 1.19929,-5.8492 3.31055,-8.20312c0.40147,-0.43487 0.50973,-1.06514 0.27638,-1.60905c-0.23335,-0.54391 -0.76468,-0.89978 -1.35646,-0.90853zM18.33398,17.13672c-0.564,0 -1.02344,0.45563 -1.02344,1.01563v7.69336c0,0.561 0.45844,1.01563 1.02344,1.01563c0.564,0 1.02344,-0.45563 1.02344,-1.01562v-7.69336c0,-0.56 -0.45844,-1.01562 -1.02344,-1.01562zM21.85352,17.13672c-0.11,0 -0.22017,0.01773 -0.32617,0.05273c-0.418,0.139 -0.69922,0.52589 -0.69922,0.96289v7.69336c0,0.561 0.46039,1.01563 1.02539,1.01563c0.566,0 1.02539,-0.45563 1.02539,-1.01562v-4.75781l3.97461,5.36719c0.192,0.254 0.49836,0.40625 0.81836,0.40625c0.109,0 0.21822,-0.01773 0.32422,-0.05273c0.42,-0.137 0.70117,-0.52389 0.70117,-0.96289v-7.69531c0,-0.56 -0.45844,-1.01367 -1.02344,-1.01367c-0.565,0 -1.02539,0.45367 -1.02539,1.01367v4.76172l-3.97656,-5.36914c-0.192,-0.254 -0.49936,-0.40625 -0.81836,-0.40625zM11.4668,17.13867c-0.564,0 -1.02344,0.45367 -1.02344,1.01367v7.69531c0,0.561 0.45844,1.01563 1.02344,1.01563h3.87891c0.565,0 1.02248,-0.45758 1.02148,-1.01758c0,-0.56 -0.45648,-1.01562 -1.02148,-1.01562h-2.85742v-6.67773c0,-0.56 -0.45648,-1.01367 -1.02148,-1.01367zM31.0957,17.13867c-0.564,0 -1.02344,0.45563 -1.02344,1.01563v0.00195v3.8418v0.00195v0.00195v3.84375c0,0.561 0.46044,1.01563 1.02344,1.01563h3.87891c0.565,0 1.02539,-0.45563 1.02539,-1.01562c0,-0.56 -0.46039,-1.01562 -1.02539,-1.01562h-2.85547v-1.81641h2.85547c0.566,0 1.02539,-0.45563 1.02539,-1.01562c0,-0.561 -0.46039,-1.01562 -1.02539,-1.01562v0.00391h-2.85547v-1.81641h2.85547c0.566,0 1.02539,-0.45563 1.02539,-1.01562c0,-0.56 -0.46039,-1.01562 -1.02539,-1.01562z"></path></g></g></svg>